<?xml version="1.0" standalone="no"?>
<!DOCTYPE svg PUBLIC "-//W3C//DTD SVG 20010904//EN"
 "http://www.w3.org/TR/2001/REC-SVG-20010904/DTD/svg10.dtd">
<svg version="1.0" xmlns="http://www.w3.org/2000/svg"
 width="400.000000pt" height="400.000000pt" viewBox="0 0 400.000000 400.000000"
 preserveAspectRatio="xMidYMid meet">
<metadata>
Created by potrace 1.14, written by Peter Selinger 2001-2017
</metadata>
<g transform="translate(0.000000,400.000000) scale(0.100000,-0.100000)"
fill="#000000" stroke="none">
<path d="M306 3989 c-62 -15 -153 -68 -197 -116 -22 -24 -55 -74 -72 -111
l-32 -67 0 -1696 0 -1695 37 -76 c45 -91 103 -147 196 -191 l67 -32 1695 0
1695 0 67 32 c93 44 151 100 196 191 l37 76 0 1695 0 1696 -32 67 c-44 93
-100 151 -191 196 l-76 37 -1675 2 c-990 0 -1692 -3 -1715 -8z m1934 -1334
l352 -505 226 327 c124 181 280 407 347 503 l121 175 242 3 242 2 0 -842 0
-843 -228 -307 -227 -307 -5 777 -5 776 -350 -507 c-192 -278 -355 -507 -361
-507 -6 0 -221 301 -478 670 l-468 670 -479 0 -478 0 -213 191 c-117 105 -222
200 -233 210 -19 19 -3 19 812 19 l831 0 352 -505z m-788 -467 c79 -94 268
-346 268 -357 0 -8 -153 -11 -510 -11 l-510 0 0 -285 0 -285 733 0 732 -1 150
-201 c83 -110 152 -205 153 -209 2 -5 -499 -9 -1117 -9 l-1121 0 0 705 0 705
589 0 589 0 44 -52z"/>
</g>
</svg>
